<?xml version="1.0" encoding="UTF-8" standalone="no"?>
<!-- Generator: Adobe Illustrator 19.0.0, SVG Export Plug-In . SVG Version: 6.00 Build 0)  -->

<svg
   xmlns:dc="http://purl.org/dc/elements/1.1/"
   xmlns:cc="http://creativecommons.org/ns#"
   xmlns:rdf="http://www.w3.org/1999/02/22-rdf-syntax-ns#"
   xmlns:svg="http://www.w3.org/2000/svg"
   xmlns="http://www.w3.org/2000/svg"
   xmlns:sodipodi="http://sodipodi.sourceforge.net/DTD/sodipodi-0.dtd"
   xmlns:inkscape="http://www.inkscape.org/namespaces/inkscape"
   version="1.1"
   id="Capa_1"
   x="0px"
   y="0px"
   viewBox="0 0 512 512"
   style="enable-background:new 0 0 512 512;"
   xml:space="preserve"
   sodipodi:docname="right-arrow.svg"
   inkscape:version="0.92.2 (5c3e80d, 2017-08-06)"><metadata
     id="metadata4588"><rdf:RDF><cc:Work
         rdf:about=""><dc:format>image/svg+xml</dc:format><dc:type
           rdf:resource="http://purl.org/dc/dcmitype/StillImage" /></cc:Work></rdf:RDF></metadata><defs
     id="defs4586" /><sodipodi:namedview
     pagecolor="#ffffff"
     bordercolor="#666666"
     borderopacity="1"
     objecttolerance="10"
     gridtolerance="10"
     guidetolerance="10"
     inkscape:pageopacity="0"
     inkscape:pageshadow="2"
     inkscape:window-width="1920"
     inkscape:window-height="1001"
     id="namedview4584"
     showgrid="false"
     inkscape:zoom="1.578125"
     inkscape:cx="256"
     inkscape:cy="256"
     inkscape:window-x="2391"
     inkscape:window-y="-9"
     inkscape:window-maximized="1"
     inkscape:current-layer="Capa_1" /><g
     id="g4551"><g
       id="g4549"><path
         d="M506.134,241.843c-0.006-0.006-0.011-0.013-0.018-0.019l-104.504-104c-7.829-7.791-20.492-7.762-28.285,0.068    c-7.792,7.829-7.762,20.492,0.067,28.284L443.558,236H20c-11.046,0-20,8.954-20,20c0,11.046,8.954,20,20,20h423.557    l-70.162,69.824c-7.829,7.792-7.859,20.455-0.067,28.284c7.793,7.831,20.457,7.858,28.285,0.068l104.504-104    c0.006-0.006,0.011-0.013,0.018-0.019C513.968,262.339,513.943,249.635,506.134,241.843z"
         id="path4547" /></g></g><g
     id="g4553" /><g
     id="g4555" /><g
     id="g4557" /><g
     id="g4559" /><g
     id="g4561" /><g
     id="g4563" /><g
     id="g4565" /><g
     id="g4567" /><g
     id="g4569" /><g
     id="g4571" /><g
     id="g4573" /><g
     id="g4575" /><g
     id="g4577" /><g
     id="g4579" /><g
     id="g4581" /><path
     style="fill:#ff0000;fill-opacity:1;stroke:#ff0008;stroke-width:2.39494824;stroke-miterlimit:4;stroke-dasharray:none;stroke-opacity:1"
     d="m 383.71089,379.28464 c -9.04052,-1.78859 -15.6876,-9.96651 -15.6876,-19.30048 0,-8.45323 -1.07011,-7.16496 39.45142,-47.49419 19.91901,-19.82448 36.21638,-36.28196 36.21638,-36.57219 0,-0.29022 -96.18683,-0.52768 -213.74851,-0.52768 -240.671043,0 -216.897724,0.54598 -223.101364,-5.1238 -10.4787967,-9.57703 -7.77866684,-26.06701 5.27032,-32.18641 l 3.539949,-1.66009 214.021895,-0.31683 214.02189,-0.31683 -36.41883,-36.41468 c -38.78135,-38.77693 -38.3982,-38.33448 -39.33886,-45.42555 -0.83664,-6.30691 2.76741,-14.21276 8.12798,-17.82955 4.16463,-2.80988 6.75,-3.61802 11.54632,-3.60914 8.86911,0.0164 5.52197,-2.89992 66.27222,57.74258 61.5542,61.44502 58.0235,57.3468 57.48087,66.72048 -0.22054,3.80963 -0.67598,5.57132 -2.13185,8.24625 -1.42157,2.61188 -14.2837,15.75217 -55.39969,56.59777 -29.45155,29.25787 -54.61652,53.91577 -55.92215,54.79533 -2.20315,1.4842 -8.42671,3.39273 -10.61623,3.2556 -0.52277,-0.0328 -2.13564,-0.294 -3.58416,-0.58059 z"
     id="path4590"
     inkscape:connector-curvature="0" /></svg>